HIERARCHY
ROOT Root
{
  OFFSET 0.0 0.0 0.0
  CHANNELS 6 Xposition Yposition Zposition Zrotation Yrotation Xrotation
  JOINT Hips
  {
    OFFSET 0.0 100.0 0.0
    CHANNELS 6 Xposition Yposition Zposition Zrotation Yrotation Xrotation
    JOINT Spine1
    {
      OFFSET -0.013727 5.003763 -0.053727
      CHANNELS 3 Zrotation Yrotation Xrotation
      JOINT Spine2
      {
        OFFSET -0.0 7.125301 -0.029825
        CHANNELS 3 Zrotation Yrotation Xrotation
        JOINT Chest
        {
          OFFSET -1e-06 7.550063 -0.815971
          CHANNELS 3 Zrotation Yrotation Xrotation
          JOINT Neck1
          {
            OFFSET -0.181677 26.311295 -0.553348
            CHANNELS 3 Zrotation Yrotation Xrotation
            JOINT Neck2
            {
              OFFSET -3e-06 7.709397 2.302585
              CHANNELS 3 Zrotation Yrotation Xrotation
              JOINT Head
              {
                OFFSET -5e-06 6.128916 1.953709
                CHANNELS 3 Zrotation Yrotation Xrotation
                JOINT HeadEnd
                {
                  OFFSET 0.003598 16.065403 -1.835379
                  CHANNELS 3 Zrotation Yrotation Xrotation
                }
                JOINT Jaw
                {
                  OFFSET 0.002637 0.475592 3.094941
                  CHANNELS 3 Zrotation Yrotation Xrotation
                }
                JOINT LeftEye
                {
                  OFFSET 3.206381 5.380205 7.586883
                  CHANNELS 3 Zrotation Yrotation Xrotation
                }
                JOINT RightEye
                {
                  OFFSET -3.22244 5.361869 7.558234
                  CHANNELS 3 Zrotation Yrotation Xrotation
                }
              }
            }
          }
          JOINT LeftShoulder
          {
            OFFSET 1.621652 23.237164 5.113413
            CHANNELS 3 Zrotation Yrotation Xrotation
            JOINT LeftArm
            {
              OFFSET 14.919846 2e-06 -5.502326
              CHANNELS 3 Zrotation Yrotation Xrotation
              JOINT LeftForeArm
              {
                OFFSET 28.739307 0.0 -0.002588
                CHANNELS 3 Zrotation Yrotation Xrotation
                JOINT LeftHand
                {
                  OFFSET 27.093981 -1e-06 0.002609
                  CHANNELS 3 Zrotation Yrotation Xrotation
                  JOINT LeftHandThumb1
                  {
                    OFFSET 2.276482 -1.392045 3.191413
                    CHANNELS 3 Zrotation Yrotation Xrotation
                    JOINT LeftHandThumb2
                    {
                      OFFSET 4.012836 -1.828127 1.641654
                      CHANNELS 3 Zrotation Yrotation Xrotation
                      JOINT LeftHandThumb3
                      {
                        OFFSET 2.798515 0.0 -3e-06
                        CHANNELS 3 Zrotation Yrotation Xrotation
                        JOINT LeftHandThumbEnd
                        {
                          OFFSET 3.180793 -4e-06 4e-06
                          CHANNELS 3 Zrotation Yrotation Xrotation
                        }
                      }
                    }
                  }
                  JOINT LeftHandIndex1
                  {
                    OFFSET 3.247555 -0.531998 2.296169
                    CHANNELS 3 Zrotation Yrotation Xrotation
                    JOINT LeftHandIndex2
                    {
                      OFFSET 6.364578 0.01206 0.1786
                      CHANNELS 3 Zrotation Yrotation Xrotation
                      JOINT LeftHandIndex3
                      {
                        OFFSET 3.662364 0.0 0.0
                        CHANNELS 3 Zrotation Yrotation Xrotation
                        JOINT LeftHandIndex4
                        {
                          OFFSET 2.329242 4e-06 4e-06
                          CHANNELS 3 Zrotation Yrotation Xrotation
                          JOINT LeftHandIndexEnd
                          {
                            OFFSET 2.759615 -0.180537 -0.113024
                            CHANNELS 3 Zrotation Yrotation Xrotation
                          }
                        }
                      }
                    }
                  }
                  JOINT LeftHandMiddle1
                  {
                    OFFSET 3.163495 0.240981 1.000332
                    CHANNELS 3 Zrotation Yrotation Xrotation
                    JOINT LeftHandMiddle2
                    {
                      OFFSET 6.19078 -0.259278 -1.002548
                      CHANNELS 3 Zrotation Yrotation Xrotation
                      JOINT LeftHandMiddle3
                      {
                        OFFSET 4.35652 -4e-06 -1e-06
                        CHANNELS 3 Zrotation Yrotation Xrotation
                        JOINT LeftHandMiddle4
                        {
                          OFFSET 2.996877 -8e-06 0.0
                          CHANNELS 3 Zrotation Yrotation Xrotation
                          JOINT LeftHandMiddleEnd
                          {
                            OFFSET 2.304287 -0.294569 -0.031741
                            CHANNELS 3 Zrotation Yrotation Xrotation
                          }
                        }
                      }
                    }
                  }
                  JOINT LeftHandRing1
                  {
                    OFFSET 2.882643 -0.053652 -0.322543
                    CHANNELS 3 Zrotation Yrotation Xrotation
                    JOINT LeftHandRing2
                    {
                      OFFSET 5.854541 -0.486202 -1.373841
                      CHANNELS 3 Zrotation Yrotation Xrotation
                      JOINT LeftHandRing3
                      {
                        OFFSET 4.350578 0.0 3e-06
                        CHANNELS 3 Zrotation Yrotation Xrotation
                        JOINT LeftHandRing4
                        {
                          OFFSET 2.651321 7e-06 2e-06
                          CHANNELS 3 Zrotation Yrotation Xrotation
                          JOINT LeftHandRingEnd
                          {
                            OFFSET 1.936105 0.077687 -7.1e-05
                            CHANNELS 3 Zrotation Yrotation Xrotation
                          }
                        }
                      }
                    }
                  }
                  JOINT LeftHandPinky1
                  {
                    OFFSET 2.8655 -0.310005 -1.600378
                    CHANNELS 3 Zrotation Yrotation Xrotation
                    JOINT LeftHandPinky2
                    {
                      OFFSET 5.087849 -1.331141 -1.77123
                      CHANNELS 3 Zrotation Yrotation Xrotation
                      JOINT LeftHandPinky3
                      {
                        OFFSET 3.070974 4e-06 0.0
                        CHANNELS 3 Zrotation Yrotation Xrotation
                        JOINT LeftHandPinky4
                        {
                          OFFSET 1.549672 0.0 1e-06
                          CHANNELS 3 Zrotation Yrotation Xrotation
                          JOINT LeftHandPinkyEnd
                          {
                            OFFSET 1.944893 -0.157802 0.057219
                            CHANNELS 3 Zrotation Yrotation Xrotation
                          }
                        }
                      }
                    }
                  }
                }
              }
            }
          }
          JOINT RightShoulder
          {
            OFFSET -1.380118 23.180309 5.214158
            CHANNELS 3 Zrotation Yrotation Xrotation
            JOINT RightArm
            {
              OFFSET -15.037196 1.2e-05 -5.545604
              CHANNELS 3 Zrotation Yrotation Xrotation
              JOINT RightForeArm
              {
                OFFSET -28.736639 2e-06 -0.002597
                CHANNELS 3 Zrotation Yrotation Xrotation
                JOINT RightHand
                {
                  OFFSET -27.133619 -0.0 0.002613
                  CHANNELS 3 Zrotation Yrotation Xrotation
                  JOINT RightHandThumb1
                  {
                    OFFSET -2.274032 -1.383988 3.163127
                    CHANNELS 3 Zrotation Yrotation Xrotation
                    JOINT RightHandThumb2
                    {
                      OFFSET -4.011429 -1.827466 1.640914
                      CHANNELS 3 Zrotation Yrotation Xrotation
                      JOINT RightHandThumb3
                      {
                        OFFSET -2.794935 -4e-06 -3e-06
                        CHANNELS 3 Zrotation Yrotation Xrotation
                        JOINT RightHandThumbEnd
                        {
                          OFFSET -3.183852 4e-06 1e-06
                          CHANNELS 3 Zrotation Yrotation Xrotation
                        }
                      }
                    }
                  }
                  JOINT RightHandIndex1
                  {
                    OFFSET -3.253266 -0.520057 2.282866
                    CHANNELS 3 Zrotation Yrotation Xrotation
                    JOINT RightHandIndex2
                    {
                      OFFSET -6.341917 0.012471 0.178266
                      CHANNELS 3 Zrotation Yrotation Xrotation
                      JOINT RightHandIndex3
                      {
                        OFFSET -3.654871 -8e-06 -0.0
                        CHANNELS 3 Zrotation Yrotation Xrotation
                        JOINT RightHandIndex4
                        {
                          OFFSET -2.327586 0.0 1e-06
                          CHANNELS 3 Zrotation Yrotation Xrotation
                          JOINT RightHandIndexEnd
                          {
                            OFFSET -2.76179 -0.180656 -0.113078
                            CHANNELS 3 Zrotation Yrotation Xrotation
                          }
                        }
                      }
                    }
                  }
                  JOINT RightHandMiddle1
                  {
                    OFFSET -3.168106 0.246593 1.00103
                    CHANNELS 3 Zrotation Yrotation Xrotation
                    JOINT RightHandMiddle2
                    {
                      OFFSET -6.180828 -0.258836 -1.000895
                      CHANNELS 3 Zrotation Yrotation Xrotation
                      JOINT RightHandMiddle3
                      {
                        OFFSET -4.348901 0.0 -0.0
                        CHANNELS 3 Zrotation Yrotation Xrotation
                        JOINT RightHandMiddle4
                        {
                          OFFSET -3.00024 -4e-06 -2e-06
                          CHANNELS 3 Zrotation Yrotation Xrotation
                          JOINT RightHandMiddleEnd
                          {
                            OFFSET -2.30252 -0.29437 -0.031706
                            CHANNELS 3 Zrotation Yrotation Xrotation
                          }
                        }
                      }
                    }
                  }
                  JOINT RightHandRing1
                  {
                    OFFSET -2.88569 -0.067952 -0.308858
                    CHANNELS 3 Zrotation Yrotation Xrotation
                    JOINT RightHandRing2
                    {
                      OFFSET -5.854198 -0.48613 -1.373731
                      CHANNELS 3 Zrotation Yrotation Xrotation
                      JOINT RightHandRing3
                      {
                        OFFSET -4.33881 -4e-06 -0.0
                        CHANNELS 3 Zrotation Yrotation Xrotation
                        JOINT RightHandRing4
                        {
                          OFFSET -2.654903 -4e-06 4e-06
                          CHANNELS 3 Zrotation Yrotation Xrotation
                          JOINT RightHandRingEnd
                          {
                            OFFSET -1.933568 0.077527 -5.2e-05
                            CHANNELS 3 Zrotation Yrotation Xrotation
                          }
                        }
                      }
                    }
                  }
                  JOINT RightHandPinky1
                  {
                    OFFSET -2.866425 -0.342796 -1.584145
                    CHANNELS 3 Zrotation Yrotation Xrotation
                    JOINT RightHandPinky2
                    {
                      OFFSET -5.091371 -1.332055 -1.772385
                      CHANNELS 3 Zrotation Yrotation Xrotation
                      JOINT RightHandPinky3
                      {
                        OFFSET -3.062664 -4e-06 1e-06
                        CHANNELS 3 Zrotation Yrotation Xrotation
                        JOINT RightHandPinky4
                        {
                          OFFSET -1.546529 4e-06 -2e-06
                          CHANNELS 3 Zrotation Yrotation Xrotation
                          JOINT RightHandPinkyEnd
                          {
                            OFFSET -1.945119 -0.157718 0.057211
                            CHANNELS 3 Zrotation Yrotation Xrotation
                          }
                        }
                      }
                    }
                  }
                }
              }
            }
          }
        }
      }
    }
    JOINT LeftLeg
    {
      OFFSET 10.043214 -8.434526 2.595655
      CHANNELS 3 Zrotation Yrotation Xrotation
      JOINT LeftShin
      {
        OFFSET -1e-06 -43.221752 -0.802913
        CHANNELS 3 Zrotation Yrotation Xrotation
        JOINT LeftFoot
        {
          OFFSET 1e-06 -42.155094 -3.481523
          CHANNELS 3 Zrotation Yrotation Xrotation
          JOINT LeftToeBase
          {
            OFFSET 0.0 -5.059472 13.231529
            CHANNELS 3 Zrotation Yrotation Xrotation
            JOINT LeftToeEnd
            {
              OFFSET -0.009607 -1.647619 6.513017
              CHANNELS 3 Zrotation Yrotation Xrotation
            }
          }
        }
      }
    }
    JOINT RightLeg
    {
      OFFSET -10.047278 -8.29526 2.620317
      CHANNELS 3 Zrotation Yrotation Xrotation
      JOINT RightShin
      {
        OFFSET 1e-06 -43.362206 -0.805556
        CHANNELS 3 Zrotation Yrotation Xrotation
        JOINT RightFoot
        {
          OFFSET 2e-06 -42.117393 -3.478398
          CHANNELS 3 Zrotation Yrotation Xrotation
          JOINT RightToeBase
          {
            OFFSET -0.0 -5.079609 13.284196
            CHANNELS 3 Zrotation Yrotation Xrotation
            JOINT RightToeEnd
            {
              OFFSET 0.009532 -1.634378 6.460591
              CHANNELS 3 Zrotation Yrotation Xrotation
            }
          }
        }
      }
    }
  }
}
MOTION
Frames: 5
Frame Time: 0.03333333333333333
0.0 0.0 0.0 0.0 -0.0 0.0 -2.762597 95.826271 534.316284 -4.156182 5.325211 -3.209293 2.547867 -0.171812 -0.737521 0.141374 -2.187355 -5.039183 1.037805 -3.832053 10.48017 -0.73384 3.091647 2.086419 -0.380108 1.345922 -3.598118 0.311567 0.63963 -7.878763 7.7e-05 -2.2e-05 6e-06 0.015456 0.02733 -0.033592 0.776444 -3.717813 -10.689414 -0.746086 3.769718 -10.660265 -11.862181 -8.913912 11.925775 -62.086967 0.770515 -1.424842 0.005251 -34.003357 -0.023804 2.749094 -7.224871 7.269935 -5.882107 9.861288 0.70259 -10.936875 -0.360575 7.156205 1e-06 8.774828 -2e-06 -15.980436 17.920181 6.002421 -1.844033 2.498504 -2.507277 -10.163602 4.678946 4.621109 -20.976027 -5e-06 1e-06 -21.226288 2.451696 -3.593997 1e-06 -6e-06 -1e-06 -1.362681 2.240799 -0.746323 -21.334917 0.584909 3.008323 -13.821217 -2e-06 2e-06 -23.887175 -0.249079 -0.839484 -60.10902 2.328941 -0.983098 -0.294024 1.679687 0.833256 -14.218211 0.093216 1.300582 -34.212051 -0.287564 0.96717 -20.033216 0.964537 1.212845 0.0 1e-06 0.0 -3.440389 0.788234 0.501657 -15.928189 -3.167311 2.999707 -6.338828 -1e-06 1e-06 -18.123447 3.648182 -4.90567 -4e-06 0.0 -2e-06 16.315296 7.22396 14.988227 59.174068 2.121886 33.44109 0.826921 20.329649 0.289417 -1.110033 -0.628357 -6.833423 2.243543 -5.255039 -3.180158 14.2829 -0.826597 6.952508 -2e-06 -12.690613 2e-06 16.186073 -17.510592 2.409512 1.665667 -1.955922 -2.8783 4.727802 -4.17059 4.993931 11.020535 3e-06 0.0 12.10906 -3.735717 -2.866786 -1e-06 1e-06 0.0 1.291986 -1.92855 -1.498089 14.800136 0.567468 3.865611 14.242581 -1.341737 -6.660662 19.631975 0.143926 -0.648245 49.845634 -0.196567 -6.535233 0.353029 -1.511151 -0.03194 20.222803 3.684311 2.316633 18.787287 3e-06 2e-06 10.751636 -0.47987 1.397906 -0.0 0.0 -1e-06 3.273809 0.305947 -0.580112 21.486826 11.83038 2.266133 8.162933 3e-06 -1e-06 18.399096 -3.798988 -4.940577 1e-06 1e-06 -1e-06 9.438004 7.121937 6.739419 -0.044602 -0.589792 50.823174 -6.576374 -0.197066 30.986906 1.969983 -1.729936 -9.664494 -0.0 -0.0 2e-06 7.579599 1.961391 -23.412992 -0.040891 -0.164551 23.172009 -4.268299 -7.424807 3.252016 -1.410831 1.049493 -1.163258 -0.0 -0.0 -1e-06 
0.0 0.0 0.0 0.0 -0.0 0.0 -3.017916 96.580437 539.378235 -4.755013 5.650553 -3.959816 2.745008 -0.218204 -0.348812 0.139195 -2.068671 -4.81825 1.257538 -3.999558 10.619017 -0.189947 2.622391 2.424727 -0.286071 1.415837 -3.595147 0.349713 0.793036 -8.342475 7.7e-05 -2.2e-05 6e-06 0.002359 -0.02113 -0.014386 0.749084 -3.766293 -10.67846 -0.74511 3.722407 -10.641439 -11.679039 -8.87748 12.183249 -62.965828 0.877352 1.258361 0.094301 -31.474363 0.048096 1.403674 -6.67384 8.943647 -5.882111 9.861295 0.70259 -10.936878 -0.360573 7.156206 -1e-06 8.774831 -1e-06 -16.214117 17.979776 5.904922 -1.844033 2.498506 -2.507277 -10.163607 4.678951 4.62111 -20.976038 -0.0 -1e-06 -21.226301 2.4517 -3.594007 1e-06 -5e-06 0.0 -1.362682 2.2408 -0.746324 -21.334929 0.584914 3.008321 -13.821222 -1e-06 -1e-06 -23.887188 -0.249078 -0.83949 -60.415504 2.4935 -0.911493 -0.294024 1.679689 0.833257 -14.218218 0.093217 1.30058 -34.212074 -0.287562 0.967164 -20.033228 0.964536 1.212839 0.0 1e-06 -1e-06 -3.440391 0.788234 0.501655 -15.928196 -3.167309 2.999706 -6.33883 -1e-06 -2e-06 -18.123459 3.648187 -4.905676 -5e-06 -0.0 -3e-06 16.941523 7.078182 14.793521 57.361221 4.28119 31.927326 0.87243 21.686268 0.204051 -2.43062 -0.104348 -7.515284 2.243543 -5.25504 -3.18016 14.282899 -0.826597 6.952505 -2e-06 -12.690612 0.0 16.301306 -17.396626 2.454139 1.665667 -1.955923 -2.878301 4.727801 -4.170591 4.993926 11.020531 2e-06 -0.0 12.109058 -3.735719 -2.866787 -0.0 1e-06 -1e-06 1.291986 -1.92855 -1.498091 14.800136 0.567468 3.865608 14.242579 -1.341738 -6.660659 19.631975 0.143927 -0.648245 49.948719 -0.286817 -6.349047 0.353029 -1.511152 -0.031939 20.222801 3.684312 2.316628 18.787283 3e-06 -1e-06 10.751633 -0.479869 1.397907 1e-06 0.0 1e-06 3.273808 0.305947 -0.580112 21.486824 11.830381 2.266136 8.16293 1e-06 -3e-06 18.399094 -3.798988 -4.94058 2e-06 0.0 -1e-06 10.033845 6.356616 0.135892 -0.041953 -0.428773 60.461586 -6.976474 1.166709 27.156689 1.940633 -1.837388 -5.488485 0.0 0.0 2e-06 8.887094 1.290799 -19.069798 -0.154259 -0.175841 22.983706 -5.060554 -7.36037 -0.20361 -1.412935 1.025698 -0.685963 0.0 -0.0 -1e-06 
0.0 0.0 0.0 0.0 -0.0 0.0 -3.084191 97.559662 544.229248 -4.364253 5.452554 -4.795987 2.602272 -0.173194 0.027289 -0.046069 -1.756493 -4.648443 0.931805 -3.859977 10.87013 0.405868 2.398823 3.240878 -0.29816 1.411684 -3.551295 0.390397 0.693907 -8.468134 7.7e-05 -2.2e-05 6e-06 -0.006903 -0.060933 0.014822 0.712962 -3.805013 -10.664796 -0.72796 3.684225 -10.636069 -11.390927 -8.442501 12.325651 -63.817867 1.391435 2.755376 -0.193458 -30.41596 0.186706 0.722539 -6.770975 9.913205 -5.882103 9.861283 0.702589 -10.936868 -0.360575 7.156201 0.0 8.774822 -1e-06 -16.267061 18.047894 5.83639 -1.844031 2.498504 -2.507277 -10.163595 4.678944 4.621107 -20.976015 -3e-06 -0.0 -21.226278 2.451695 -3.594 0.0 -5e-06 -1e-06 -1.36268 2.240798 -0.746322 -21.334909 0.584909 3.00832 -13.821213 -3e-06 -1e-06 -23.887167 -0.249081 -0.839483 -60.470814 2.666455 -0.937534 -0.294024 1.679687 0.833255 -14.218204 0.093214 1.300578 -34.212036 -0.287564 0.967168 -20.033209 0.964536 1.212842 1e-06 1e-06 -0.0 -3.440388 0.788234 0.501655 -15.928183 -3.167309 2.999704 -6.338825 -0.0 0.0 -18.123444 3.648183 -4.905669 -5e-06 0.0 -2e-06 17.199148 7.114609 14.730604 56.014442 6.889992 30.122385 0.750059 23.026842 0.160992 -4.392675 0.155858 -7.468919 2.243541 -5.255037 -3.180157 14.282889 -0.826594 6.9525 -3e-06 -12.690607 1e-06 16.428375 -17.400206 2.449707 1.665666 -1.955922 -2.878299 4.727798 -4.170588 4.993925 11.020525 3e-06 0.0 12.10905 -3.735716 -2.866784 -0.0 0.0 -1e-06 1.291985 -1.92855 -1.498091 14.800127 0.567469 3.865611 14.24257 -1.341735 -6.660656 19.631964 0.143927 -0.648246 49.843037 -0.378853 -6.368089 0.353029 -1.51115 -0.03194 20.222788 3.684311 2.316635 18.78727 5e-06 2e-06 10.751627 -0.479869 1.397907 -1e-06 0.0 -0.0 3.273806 0.305947 -0.580112 21.486813 11.830378 2.266136 8.162926 2e-06 1e-06 18.39908 -3.798986 -4.940573 3e-06 0.0 -3e-06 8.906948 6.055267 -6.076642 -0.068236 -0.089272 66.338676 -5.391486 3.145587 19.834652 1.844566 -1.843583 -5.378191 -0.0 -0.0 2e-06 8.954043 1.087616 -13.478779 -0.165827 -0.170427 20.407574 -5.463153 -7.306697 -2.375219 -1.41506 1.046303 -0.406873 -0.0 -0.0 -1e-06 
0.0 0.0 0.0 0.0 -0.0 0.0 -3.042734 98.418312 548.930542 -3.447645 4.696837 -5.735511 2.366266 -0.015672 0.581968 -0.25279 -1.287493 -4.449049 0.286694 -3.457001 10.86537 0.738771 2.377962 4.439793 -0.28088 1.409863 -3.522651 0.550852 0.509195 -8.350863 7.7e-05 -2.3e-05 6e-06 -0.008997 -0.075298 0.038596 0.686004 -3.819192 -10.657786 -0.706254 3.670548 -10.637837 -10.718562 -7.777967 12.326782 -65.043388 2.441998 3.391505 -0.403105 -30.591475 0.281497 0.47838 -7.059558 9.992618 -5.882109 9.86129 0.702591 -10.93688 -0.360578 7.156209 2e-06 8.774831 -0.0 -16.153605 18.070009 5.844945 -1.844033 2.498505 -2.50728 -10.163608 4.678946 4.621109 -20.97604 -7e-06 3e-06 -21.226301 2.451695 -3.594 0.0 -6e-06 -0.0 -1.362682 2.240798 -0.746323 -21.33493 0.584906 3.008324 -13.821227 -6e-06 3e-06 -23.88719 -0.249083 -0.839481 -60.382 2.754967 -1.004252 -0.294025 1.679688 0.833257 -14.218221 0.093212 1.300581 -34.212082 -0.287572 0.967175 -20.033232 0.964533 1.212845 1e-06 1e-06 -0.0 -3.440392 0.788234 0.501655 -15.928203 -3.167314 2.999709 -6.338831 -3e-06 -2e-06 -18.123463 3.648181 -4.90567 -4e-06 1e-06 -3e-06 16.315533 7.538674 14.641204 55.830826 9.439144 27.942244 0.58572 24.716225 0.152299 -6.29621 0.242507 -7.535639 2.243542 -5.255037 -3.180162 14.282898 -0.826592 6.952504 -6e-06 -12.690609 4e-06 16.373821 -17.466528 2.459764 1.665667 -1.955922 -2.878302 4.7278 -4.170588 4.993925 11.020534 6e-06 -2e-06 12.109058 -3.735713 -2.866786 -0.0 0.0 -1e-06 1.291986 -1.92855 -1.498092 14.800139 0.567472 3.865608 14.242581 -1.341732 -6.660662 19.631983 0.14393 -0.648244 49.46579 -0.499093 -6.481391 0.353028 -1.51115 -0.03194 20.222803 3.684315 2.316631 18.787287 1e-05 1e-06 10.751637 -0.479866 1.397908 1e-06 1e-06 -1e-06 3.273809 0.305947 -0.580112 21.486828 11.830385 2.266129 8.16293 4e-06 -2e-06 18.399092 -3.798982 -4.940576 3e-06 -1e-06 0.0 6.896391 6.0464 -11.427039 -0.035556 0.154088 68.27784 -3.810739 5.874973 13.823034 1.802272 -1.842868 -5.394044 0.0 -1e-06 2e-06 8.371633 1.141083 -7.376523 -0.114712 -0.143665 16.876856 -5.485939 -7.012223 -3.832948 -1.413048 1.032978 -0.232462 0.0 -0.0 -1e-06 
0.0 0.0 0.0 0.0 -0.0 0.0 -2.964557 99.021461 553.447693 -2.431192 3.442162 -6.492714 2.136252 0.194406 1.132399 -0.375468 -0.678397 -4.228892 -0.39357 -2.909621 10.683743 0.6487 2.537126 5.488565 -0.229186 1.321669 -3.545015 0.80609 0.385612 -8.024194 7.7e-05 -2.2e-05 6e-06 -0.009081 -0.094373 0.047453 0.669355 -3.837076 -10.648478 -0.691367 3.649705 -10.637017 -10.360102 -7.023474 12.174562 -65.90641 3.959352 3.447903 -0.400783 -31.531101 0.305079 0.641398 -7.2204 9.338483 -5.882112 9.861295 0.702591 -10.93688 -0.360574 7.156209 0.0 8.774833 0.0 -16.047499 18.048674 5.880112 -1.844035 2.498507 -2.507279 -10.16361 4.67895 4.62111 -20.97604 -3e-06 -2e-06 -21.226309 2.451698 -3.594007 1e-06 -7e-06 -0.0 -1.362684 2.240801 -0.746322 -21.334934 0.584911 3.008321 -13.821227 -3e-06 -1e-06 -23.887194 -0.249081 -0.839487 -60.305161 2.763475 -1.067149 -0.294024 1.679688 0.833258 -14.218221 0.093217 1.300577 -34.212082 -0.287564 0.967165 -20.03323 0.964537 1.212842 0.0 0.0 -1e-06 -3.440392 0.788234 0.501657 -15.928201 -3.167312 2.999708 -6.338831 -0.0 -2e-06 -18.123466 3.648186 -4.905677 -4e-06 1e-06 -2e-06 15.081664 8.303567 14.50801 55.584362 11.793321 25.994385 0.435474 27.012928 0.191115 -7.895244 0.37382 -7.694749 2.243544 -5.255041 -3.18016 14.282903 -0.826596 6.952505 -2e-06 -12.690614 1e-06 16.17137 -17.559286 2.527231 1.665668 -1.955922 -2.8783 4.727802 -4.170591 4.993927 11.020536 4e-06 -1e-06 12.10906 -3.735718 -2.866786 0.0 -0.0 -0.0 1.291987 -1.928551 -1.498089 14.800139 0.567469 3.865608 14.242582 -1.341737 -6.66066 19.631979 0.143928 -0.648245 49.140053 -0.624328 -6.523214 0.353029 -1.511152 -0.031939 20.222805 3.684312 2.31663 18.787289 3e-06 -0.0 10.751637 -0.47987 1.397906 2e-06 1e-06 -2e-06 3.273809 0.305946 -0.580111 21.486832 11.830384 2.266132 8.162935 2e-06 -2e-06 18.399099 -3.798988 -4.94058 2e-06 -1e-06 -2e-06 4.772594 6.087259 -16.067455 0.058111 0.329454 66.534912 -2.76838 8.712554 9.258492 1.805769 -1.858752 -5.314631 0.0 -0.0 1e-06 7.599981 1.280215 -1.392019 -0.072171 -0.125542 12.842218 -5.357248 -6.359533 -4.885848 -1.41098 0.979941 -0.259812 0.0 -0.0 -1e-06 
